<!DOCTYPE svg PUBLIC "-//W3C//DTD SVG 1.1//EN" "http://www.w3.org/Graphics/SVG/1.1/DTD/svg11.dtd">
<!-- Uploaded to: SVG Repo, www.svgrepo.com, Transformed by: SVG Repo Mixer Tools -->
<svg height="64px" width="64px" version="1.1" id="_x32_" xmlns="http://www.w3.org/2000/svg" xmlns:xlink="http://www.w3.org/1999/xlink" viewBox="0 0 512 512" xml:space="preserve" fill="#000000">
<g id="SVGRepo_bgCarrier" stroke-width="0"/>
<g id="SVGRepo_tracerCarrier" stroke-linecap="round" stroke-linejoin="round"/>
<g id="SVGRepo_iconCarrier"> <style type="text/css"> .st0{fill:#000000;} </style> <g> <path class="st0" d="M507.692,387.078c-15.802-50.71-35.437-114.555-49.36-160.762c-4.311,16.767-11.717,33.642-23.082,48.42 c-48,62.403-173.912,63.116-179.247,63.116c-5.334,0-131.246-0.713-179.256-63.116c-11.356-14.778-18.763-31.654-23.082-48.42 C39.742,272.523,20.116,336.368,4.313,387.078c-11.39,36.552,0.084,66.16,30.799,79.982 c47.506,21.389,154.386,32.946,220.89,32.946s173.384-11.558,220.882-32.946C507.6,453.238,519.073,423.631,507.692,387.078z"/> <path class="st0" d="M256.002,322.043c34.07,0,130.206-9.495,166.708-56.951c36.51-47.456,25.078-119.034,11.255-116.266 c-11.868,2.366-104.951,34.808-177.964,34.808c-73.013,0-166.104-32.442-177.964-34.808c-13.83-2.768-25.254,68.81,11.248,116.266 C125.797,312.548,221.933,322.043,256.002,322.043z M213.286,239.159h85.434v30.504h-85.434V239.159z"/> <path class="st0" d="M161.703,133.032c1.585-13.277,5.116-25.976,10.308-37.516c7.784-17.304,19.282-31.906,33.457-42.088 c7.105-5.1,14.872-9.109,23.292-11.869c8.412-2.742,17.48-4.252,27.242-4.252c13.009,0,24.802,2.668,35.446,7.431 c15.944,7.138,29.397,19.107,39.554,34.439c10.157,15.307,16.909,33.936,19.308,53.847l2.55,23.251 c8.689-2.223,17-4.513,24.726-6.744l-2.139-19.442l-0.008-0.067c-1.896-15.777-6.089-30.941-12.363-44.906 c-9.419-20.902-23.552-39.135-41.778-52.245c-9.1-6.533-19.216-11.767-30.177-15.366c-10.954-3.589-22.747-5.51-35.118-5.51 c-16.498-0.016-31.956,3.439-45.795,9.637c-20.784,9.302-37.836,24.718-50.307,43.556c-12.489,18.863-20.491,41.182-23.334,64.818 l-0.008,0.058l-2.131,19.467c7.717,2.231,16.028,4.521,24.726,6.744L161.703,133.032z"/> </g> </g>
</svg>