<!DOCTYPE svg PUBLIC "-//W3C//DTD SVG 1.1//EN" "http://www.w3.org/Graphics/SVG/1.1/DTD/svg11.dtd">

<!-- Uploaded to: SVG Repo, www.svgrepo.com, Transformed by: SVG Repo Mixer Tools -->
<svg version="1.1" id="_x32_" xmlns="http://www.w3.org/2000/svg" xmlns:xlink="http://www.w3.org/1999/xlink" viewBox="0 0 512 512" xml:space="preserve" width="64px" height="64px" fill="#fff" stroke="#fff">

<g id="SVGRepo_bgCarrier" stroke-width="0"/>

<g id="SVGRepo_tracerCarrier" stroke-linecap="round" stroke-linejoin="round"/>

<g id="SVGRepo_iconCarrier"> <style type="text/css"> .st0{fill:#fff;} </style> <g> <rect x="214.097" y="227.298" class="st0" width="83.519" height="29.821"/> <path class="st0" d="M507.908,365.653l0.025-0.016l-0.017-0.024c-0.008-0.025-0.114-0.378-0.32-1.009 c-0.066-0.262-0.147-0.492-0.221-0.746c-8.568-27.485-17.071-55.01-25.525-82.543c-4.206-13.709-8.396-27.435-12.569-41.16 c-1.788-5.863-4.387-12.168-6.495-18.383c-1.041-3.099-1.976-6.149-2.615-9.035c-0.656-2.87-1.017-5.576-1.017-7.929 c0-1.09,0.074-2.107,0.23-3.042c1.131-7.116,2.378-17.538,2.378-28.64c-0.008-9.88-0.952-20.277-4.125-29.542 c-1.59-4.616-3.772-8.986-6.814-12.758c-3.017-3.756-6.961-6.887-11.749-8.823l0.361,0.148l-0.361-0.148l-0.033-0.016 c-2.935-1.189-5.977-1.64-8.912-1.632c-5.691,0.025-11.061,1.583-16.006,3.288c-4.92,1.705-9.446,3.64-12.848,4.707 c-12.136,3.861-24.303,7.535-36.528,10.922c-1.066-9.216-2.296-18.449-4.264-27.632c-2.477-11.545-6.133-23.024-12.103-34.208 c-9.158-17.104-22.302-31.518-38.164-41.702c-15.865-10.175-34.482-16.087-54.362-16.07c-0.02,0-0.024,0-0.044,0 c-19.335-0.017-37.512,5.592-53.104,15.284c-15.606,9.708-28.673,23.507-37.97,39.955c-6.494,11.495-10.471,23.376-13.152,35.364 c-2.153,9.609-3.477,19.301-4.608,29.009c-14.066-3.912-28.046-8.2-42.014-12.66c-3.492-1.115-7.268-2.492-11.236-3.624 c-3.96-1.139-8.117-2.066-12.52-2.066c-3.751-0.016-7.74,0.721-11.459,2.706c-3.719,1.984-7.014,5.132-9.671,9.314 c-4.128,6.47-6.527,13.743-7.929,21.073c-1.39,7.346-1.808,14.8-1.808,21.761c0,2.189,0.048,4.329,0.106,6.404 c0.135,3.83,0.812,7.568,1.381,11.143c0.59,3.574,1.079,6.953,1.07,9.691c0,1.706-0.18,3.124-0.509,4.215 c-2.525,8.405-5.063,16.792-7.604,25.197c-10.528,34.724-21.195,69.424-31.936,104.09c-2.887,9.331-6.076,19.187-8.561,29.272 C1.804,375.862,0.008,386.193,0,396.533c0,8.478,1.226,16.98,4.342,25.18c3.116,8.216,8.134,16.078,15.402,23.212 c6.765,6.642,14.714,11.857,23.254,16.071c12.823,6.322,27.024,10.389,41.07,13.431c14.049,3.017,27.968,5.001,40.128,6.97 c39.373,6.379,79.352,10.003,119.227,10.823c4.37,0.082,8.728,0.123,13.09,0.123c34.08,0,68.156-2.632,101.815-6.789 c36.585-4.551,76.164-9.84,111.183-25.524c14.242-6.395,25.016-16.219,32.051-27.968C508.63,420.327,512,406.741,512,392.761 C512,383.791,510.606,374.648,507.908,365.653z M175.949,128.397c1.354-11.249,4.342-22.023,8.745-31.789 c6.601-14.669,16.341-27.033,28.354-35.659c6.01-4.32,12.594-7.724,19.723-10.052c7.134-2.338,14.821-3.608,23.085-3.608 c11.02,0,21.012,2.254,30.035,6.289c13.513,6.051,24.91,16.194,33.526,29.19c8.598,12.971,14.329,28.755,16.354,45.629 l2.648,24.049c-5.412,1.263-10.914,2.476-16.464,3.6c-22.258,4.534-45.371,7.682-66.1,7.675 c-16.841,0.008-35.265-2.066-53.517-5.28c-9.814-1.739-19.568-3.788-29.034-5.994L175.949,128.397z M82.182,163.819 c0.418-3.034,0.968-5.748,1.57-8.002c0.32-1.214,0.664-2.272,0.996-3.182c1.886,0.583,4.15,1.312,6.728,2.133 c7.556,2.426,17.829,5.731,29.874,9.331c18.075,5.403,40.177,11.462,63.483,16.202c23.324,4.73,47.835,8.166,71.023,8.166 c18.847,0,38.558-2.28,57.806-5.658c28.858-5.084,56.686-12.692,78.414-19.219c10.856-3.263,20.187-6.264,27.288-8.543 c2.96-0.935,5.51-1.755,7.609-2.412c0.853,2.362,1.73,5.732,2.354,9.774c0.68,4.379,1.09,9.52,1.082,15.103 c0.008,10.372-1.41,22.286-4.805,34.052c-3.403,11.782-8.782,23.401-16.579,33.535c-3.723,4.838-8.314,9.339-13.66,13.48 c-9.34,7.264-20.99,13.406-33.684,18.358c-19.031,7.462-40.357,12.283-59.482,15.161c-9.569,1.435-18.592,2.402-26.513,3.009 c-7.912,0.607-14.738,0.828-19.83,0.828c-7.769,0.017-19.514-0.549-33.101-2.091c-20.388-2.304-45.022-6.871-67.23-14.841 c-11.101-3.985-21.589-8.806-30.632-14.48c-9.048-5.674-16.628-12.176-22.2-19.424c-7.802-10.134-13.18-21.753-16.575-33.535 c-3.403-11.774-4.817-23.68-4.813-34.052C81.305,172.51,81.629,167.869,82.182,163.819z M482.851,407.454 c-1.689,5.993-4.518,11.167-8.561,15.693c-4.05,4.526-9.372,8.413-16.201,11.495c-10.077,4.543-24.123,8.856-40.284,12.57 c-24.262,5.6-53.336,9.946-82.026,12.864c-28.69,2.928-57.052,4.436-79.924,4.436c-30.497,0-70.732-2.682-108.551-7.814 c-18.907-2.574-37.23-5.756-53.402-9.487c-16.161-3.714-30.219-8.027-40.288-12.57c-4.542-2.05-8.425-4.477-11.704-7.182 c-4.916-4.092-8.507-8.814-10.972-14.267c-2.452-5.461-3.787-11.709-3.787-18.842c0-6.478,1.115-13.676,3.546-21.482 c12.754-40.914,28.156-90.947,40.526-131.714c3.284,6.552,7.183,12.955,11.852,19.031c5.206,6.765,11.348,12.701,18.109,17.948 c11.831,9.167,25.52,16.235,39.819,21.843c21.466,8.396,44.38,13.496,64.828,16.588c10.229,1.542,19.83,2.566,28.317,3.214 c8.503,0.647,15.874,0.91,21.707,0.91c8.884,0,21.38-0.607,35.888-2.255c21.77-2.484,47.996-7.256,72.79-16.144 c12.405-4.444,24.466-9.922,35.429-16.792c10.954-6.88,20.859-15.17,28.672-25.312c4.683-6.076,8.577-12.488,11.865-19.031 c12.356,40.768,27.764,90.816,40.521,131.731c2.428,7.789,3.542,14.988,3.542,21.466 C484.565,399.107,483.975,403.469,482.851,407.454z"/> </g> </g>

</svg>