<!DOCTYPE svg PUBLIC "-//W3C//DTD SVG 1.1//EN" "http://www.w3.org/Graphics/SVG/1.1/DTD/svg11.dtd">
<!-- Uploaded to: SVG Repo, www.svgrepo.com, Transformed by: SVG Repo Mixer Tools -->
<svg version="1.1" id="Icons" xmlns="http://www.w3.org/2000/svg" xmlns:xlink="http://www.w3.org/1999/xlink" viewBox="0 0 32 32" xml:space="preserve" width="64px" height="64px" fill="#ffffff" stroke="#ffffff">
<g id="SVGRepo_bgCarrier" stroke-width="0"/>
<g id="SVGRepo_tracerCarrier" stroke-linecap="round" stroke-linejoin="round"/>
<g id="SVGRepo_iconCarrier"> <style type="text/css"> .st0{fill:none;stroke:#000000;stroke-width:2;stroke-linecap:round;stroke-linejoin:round;stroke-miterlimit:10;} </style> <path d="M23,7H9c-5,0-9,4-9,9s4,9,9,9h14c5,0,9-4,9-9S28,7,23,7z M8,17H7v1c0,0.6-0.4,1-1,1s-1-0.4-1-1v-1H4c-0.6,0-1-0.4-1-1 s0.4-1,1-1h1v-1c0-0.6,0.4-1,1-1s1,0.4,1,1v1h1c0.6,0,1,0.4,1,1S8.6,17,8,17z M22,21c0,0.6-0.4,1-1,1H11c-0.6,0-1-0.4-1-1V11 c0-0.6,0.4-1,1-1h10c0.6,0,1,0.4,1,1V21z M25.1,13.6c0.1-0.1,0.1-0.2,0.2-0.3c0.4-0.4,1-0.4,1.4,0c0.2,0.2,0.3,0.4,0.3,0.7 c0,0.3-0.1,0.5-0.3,0.7C26.5,14.9,26.3,15,26,15c-0.3,0-0.5-0.1-0.7-0.3C25.1,14.5,25,14.3,25,14C25,13.9,25,13.7,25.1,13.6z M24,17 c-0.3,0-0.5-0.1-0.7-0.3C23.1,16.5,23,16.3,23,16c0-0.3,0.1-0.5,0.3-0.7c0.1-0.1,0.2-0.2,0.3-0.2c0.4-0.1,0.8-0.1,1.1,0.2 c0.2,0.2,0.3,0.4,0.3,0.7c0,0.3-0.1,0.5-0.3,0.7C24.5,16.9,24.3,17,24,17z M26.7,18.7C26.5,18.9,26.3,19,26,19 c-0.3,0-0.5-0.1-0.7-0.3C25.1,18.5,25,18.3,25,18c0-0.1,0-0.3,0.1-0.4c0.1-0.1,0.1-0.2,0.2-0.3c0.4-0.4,1-0.4,1.4,0 c0.1,0.1,0.2,0.2,0.2,0.3c0,0.1,0.1,0.3,0.1,0.4C27,18.3,26.9,18.5,26.7,18.7z M28.7,16.7C28.5,16.9,28.3,17,28,17 c-0.3,0-0.5-0.1-0.7-0.3C27.1,16.5,27,16.3,27,16c0-0.3,0.1-0.5,0.3-0.7c0.4-0.4,1-0.4,1.4,0c0.2,0.2,0.3,0.4,0.3,0.7 C29,16.3,28.9,16.5,28.7,16.7z"/> </g>
</svg>