<!DOCTYPE svg PUBLIC "-//W3C//DTD SVG 1.1//EN" "http://www.w3.org/Graphics/SVG/1.1/DTD/svg11.dtd">

<!-- Uploaded to: SVG Repo, www.svgrepo.com, Transformed by: SVG Repo Mixer Tools -->
<svg fill="#fff" width="64px" height="64px" viewBox="0 0 24 24" xmlns="http://www.w3.org/2000/svg">

<g id="SVGRepo_bgCarrier" stroke-width="0"/>

<g id="SVGRepo_tracerCarrier" stroke-linecap="round" stroke-linejoin="round"/>

<g id="SVGRepo_iconCarrier">

<path d="M15,1A8.01,8.01,0,0,0,7,8.847l-.226-.226a3.461,3.461,0,0,0-4.784,0,3.387,3.387,0,0,0,0,4.784L7,18.414V22a1,1,0,0,0,1,1H22a1,1,0,0,0,1-1V9A8.009,8.009,0,0,0,15,1ZM9,19h2v2H9Zm8,0v2H13V19Zm4,2H19V19h2Zm0-4H8.414L3.406,11.991a1.383,1.383,0,0,1,0-1.956,1.415,1.415,0,0,1,1.955,0l1.932,1.932A1,1,0,0,0,9,11.26V9A6,6,0,0,1,21,9Z"/>

</g>

</svg>