<!DOCTYPE svg PUBLIC "-//W3C//DTD SVG 1.1//EN" "http://www.w3.org/Graphics/SVG/1.1/DTD/svg11.dtd">

<!-- Uploaded to: SVG Repo, www.svgrepo.com, Transformed by: SVG Repo Mixer Tools -->
<svg height="64px" width="64px" version="1.1" id="_x32_" xmlns="http://www.w3.org/2000/svg" xmlns:xlink="http://www.w3.org/1999/xlink" viewBox="0 0 512 512" xml:space="preserve" fill="#fff">

<g id="SVGRepo_bgCarrier" stroke-width="0"/>

<g id="SVGRepo_tracerCarrier" stroke-linecap="round" stroke-linejoin="round"/>

<g id="SVGRepo_iconCarrier"> <style type="text/css"> .st0{fill:#fff;} </style> <g> <path class="st0" d="M289.942,46.139c-48.478-0.008-93.452,15.585-129.966,41.99c-36.522,26.407-64.692,63.642-79.802,107.056 c-1.833,5.36-2.998,9.92-3.038,14.939c0,2.315,0.295,4.755,1.08,7.202c0.692,2.129,1.779,4.234,3.154,6.006 c2.424,3.154,5.438,5.088,7.94,6.277c3.822,1.772,6.86,2.378,9.555,3.084c2.696,0.677,5.027,1.298,7.109,2.152l0.318,0.118 l13.821,4.77c-0.295,36.794-4.055,66.867-9.982,91.37L49.9,328.367l-0.42-0.023l-1.344-0.031c-13.098,0-24.542,9.027-27.51,21.901 c0,0-18.382,79.568-20.067,86.964C0.179,438.809,0,440.487,0,442.134c-0.015,6.487,2.836,12.67,7.606,17.006 c4.762,4.381,11.382,6.75,18.241,6.72c3.784,0,7.638-0.677,11.506-1.942h0.016c20.253-6.603,48.33-22.499,70.564-57.73 c8.313-13.138,15.818-28.87,21.947-47.686l24.869,1.134c-0.171,2.354-0.342,4.723-0.342,7.124c0,54.017,43.77,97.779,97.779,97.787 c7.489-0.008,16.649-0.707,25.846-2.129c9.222-1.453,18.258-3.458,26.073-6.891c14.714-6.573,30.912-15.989,49.03-23.68 c18.094-7.698,37.757-13.579,58.702-13.579c10.861,0.007,22.11,1.562,33.918,5.344c2.929,0.933,5.998,1.461,9.113,1.461 c5.803,0.039,11.91-1.973,16.594-5.958c4.723-3.962,7.801-9.54,9.222-15.491c3.31-13.72,5.306-21.512,7.753-29.506 c2.439-8.002,5.43-16.509,10.737-31.394C507.478,319.417,512,294.301,512,268.189C511.992,145.549,412.59,46.139,289.942,46.139z M85.566,392.025c-18.894,29.716-40.903,41.532-56.472,46.738c-0.722,0.241-1.329,0.373-1.849,0.474 c1.826-7.925,5.873-25.451,9.773-42.356c2.401-10.402,4.755-20.58,6.502-28.162c1.756-7.583,2.898-12.539,2.898-12.539 c0.178-0.832,0.909-1.383,1.709-1.383l-0.435-0.031l0.396,0.023l0.047,0.008v-0.008l54.173,2.462 C97.329,371.003,91.61,382.485,85.566,392.025z M162.238,328.569l-0.389,0.7l-0.302,0.737c-0.451,1.104-0.786,2.261-1.19,3.38 l-23.376-1.057c5.33-23.648,8.74-51.227,9.494-83.5l4.118,1.43c13.425,6.083,21.341,18.467,22.195,30.034 c0.125,1.585,0.195,3.349,0.195,5.237C173.036,297.649,169.96,314.756,162.238,328.569z M474.243,333.836 c-5.306,14.886-8.438,23.734-11.125,32.536c-2.696,8.81-4.84,17.239-8.174,31.045c-0.132,0.559-0.272,0.886-0.388,1.118l-0.73-0.14 c-14.481-4.646-28.582-6.603-41.99-6.603c-25.949,0.008-49.162,7.241-69.058,15.693c-19.873,8.476-36.778,18.265-49.434,23.858 c-3.978,1.818-11.575,3.753-19.352,4.918c-7.801,1.212-16.012,1.818-21.807,1.81c-19.734-0.007-37.477-7.962-50.42-20.883 c-12.928-12.95-20.883-30.694-20.891-50.427c0-2.005,0.132-3.962,0.288-5.92l65.585,2.975c4.195,18.436,20.65,32.218,40.352,32.218 c22.879,0,41.423-18.552,41.423-41.423c0-22.872-18.544-41.416-41.423-41.416c-16.734,0-31.122,9.952-37.656,24.246l-60.69-2.765 c7.886-17.107,10.658-34.898,10.706-49.146c0-2.533-0.094-4.973-0.272-7.302c-1.741-21.769-15.771-42.294-38.13-52.316l-0.52-0.233 l-45.269-15.616l-0.008,0.008c-3.326-1.298-6.386-2.145-8.826-2.774c-0.801-0.194-1.492-0.373-2.16-0.543 c0.233-0.832,0.513-1.756,0.902-2.867c13.292-38.184,38.122-71.031,70.308-94.306c32.202-23.268,71.668-36.964,114.459-36.972 c54.047,0.008,102.86,21.878,138.302,57.287c35.41,35.434,57.272,84.246,57.28,138.294 C485.524,291.254,481.546,313.333,474.243,333.836z"/> <polygon class="st0" points="328.569,127.759 298.612,164.957 250.989,161.359 277.108,201.346 258.975,245.519 305.068,233.035 341.481,263.94 343.858,216.239 384.497,191.161 339.865,174.162 "/> </g> </g>

</svg>