<!DOCTYPE svg PUBLIC "-//W3C//DTD SVG 1.1//EN" "http://www.w3.org/Graphics/SVG/1.1/DTD/svg11.dtd">
<!-- Uploaded to: SVG Repo, www.svgrepo.com, Transformed by: SVG Repo Mixer Tools -->
<svg height="64px" width="64px" version="1.1" id="_x32_" xmlns="http://www.w3.org/2000/svg" xmlns:xlink="http://www.w3.org/1999/xlink" viewBox="0 0 512 512" xml:space="preserve" fill="#000000">
<g id="SVGRepo_bgCarrier" stroke-width="0"/>
<g id="SVGRepo_tracerCarrier" stroke-linecap="round" stroke-linejoin="round"/>
<g id="SVGRepo_iconCarrier"> <style type="text/css"> .st0{fill:#000000;} </style> <g> <path class="st0" d="M300.417,57.438c-78.121,0-146.356,42.346-182.999,105.33c-0.667,1.158-11.276-2.204-11.928-1.038 c-5.871,10.544-10.793,23.782-14.814,35.348c-7.584,21.78,14.429,20.075,28.375,25.722l18.434,6.362 c-0.651,1.415-1.11,2.951-1.238,4.592c-2.188,27.942-6.435,51.435-12.017,71.276l-69.546-15.707l-0.692-0.081 c-1.174-0.144-2.373-0.217-3.595-0.217c-5.871,0-11.51,1.697-16.287,4.866c-4.753,3.161-8.71,7.922-10.705,13.826l-0.25,0.741 l-0.169,0.78c0,0-1.254,5.927-3.169,14.927c-2.879,13.495-7.238,33.901-11.091,51.514c-1.914,8.815-3.707,16.922-5.115,23.098 c-0.7,3.089-1.311,5.687-1.778,7.61c-0.226,0.949-0.434,1.737-0.578,2.3l-0.162,0.611l-0.007,0.015 C0.362,411.484,0,413.752,0,416.004c-0.016,6.885,3.394,13.207,8.453,17.293c5.075,4.158,11.694,6.217,18.668,6.201 c2.83,0,5.726-0.33,8.67-0.957l0.024-0.009c20.734-4.431,50.212-16.705,75.434-47.565c11.55-14.107,22.11-31.995,30.756-54.426 l37.874,8.55c-2.188,7.561-3.386,15.538-3.386,23.806c0,47.316,38.357,85.665,85.665,85.665c13.463,0,35.204-2.654,47.155-7.978 c34.906-15.522,88.254-53.622,153.071-32.863c8.301,2.662,15.934-0.989,18.258-10.624c6.724-27.869,8.397-32.896,19.142-63.057 C507.697,317.842,512,293.931,512,269.022C512,152.167,417.271,57.438,300.417,57.438z M58.56,401.367 c-10.416,5.935-20.292,9.185-28.399,10.938c-0.901,0.202-1.617,0.282-2.252,0.322c1.126-4.617,2.75-11.775,4.697-20.598 c1.754-7.922,3.723-16.978,5.679-26.034l49.969,10.583C78.434,387.952,68.243,395.833,58.56,401.367z M101.308,358.78 l-58.794-12.458c3.056-14.276,5.558-26.066,6.402-30.015c0.161-0.146,0.659-0.467,1.472-0.459l65.163,14.718 C111.184,341.335,106.367,350.68,101.308,358.78z M189.932,319.86l-39.499-8.911c5.807-20.944,10.087-45.145,12.362-73.046 l1.568,0.531c18.234,8.139,29.398,24.868,30.724,41.807C195.907,290.705,194.637,305.311,189.932,319.86z M297.538,391.844 c-19.472,0-35.26-15.788-35.26-35.26c0-19.472,15.788-35.26,35.26-35.26c19.464,0,35.259,15.788,35.259,35.26 C332.797,376.056,317.002,391.844,297.538,391.844z M338.958,100.838c-111.538-14.51-159.386,78.867-159.386,78.867l-29.582-9.852 c26.292-50.952,83.798-95.308,170.894-90.378c87.08,4.922,139.657,80.509,139.657,80.509S421.116,111.518,338.958,100.838z"/> </g> </g>
</svg>