<svg fill="#ffffff" viewBox="0 0 512 512" enable-background="new 0 0 512 512" id="female_x5F_hat" version="1.1" xml:space="preserve" xmlns="http://www.w3.org/2000/svg" xmlns:xlink="http://www.w3.org/1999/xlink" stroke="#ffffff">
    <g id="SVGRepo_bgCarrier" stroke-width="0"></g>
    <g id="SVGRepo_tracerCarrier" stroke-linecap="round" stroke-linejoin="round"></g>
    <g id="SVGRepo_iconCarrier">
        <path d="M507.189,248.206c-3.267-11.031-10.069-21.402-19.674-29.99c-32.283-28.872-80.265-42.103-116.677-48.163 c-18.347-27.237-52.559-55.159-115.73-55.159c-42.138,0-75.742,12.279-99.883,36.496c-5.811,5.829-10.735,12.024-14.929,18.344 c-2.15,0.306-4.338,0.638-6.554,0.993c-4.4-6.71-9.442-12.238-15.146-15.29c-6.129-3.278-12.732-3.671-19.095-1.135 c-13.146,5.245-24.634,19.331-33.218,35.438c-14.303,6.313-27.888,14.291-39.556,24.373c-18.435,15.93-26.392,34.328-23.646,54.684 c5.103,37.839,47.88,74.344,85.468,92.25c49.412,23.537,107.332,36.006,167.503,36.06l0.166-0.003l0.266,0.003l0.06-0.003 c62.785-0.077,124.723-14.122,174.428-39.551c14.357-7.346,62.26-34.648,75.871-77.566 C510.192,269.428,510.309,258.735,507.189,248.206z M144.774,188.937c0.13-0.257,0.253-0.513,0.386-0.77 c1.157-2.252,2.405-4.505,3.748-6.745c0.188-0.313,0.387-0.623,0.577-0.935c0.484-0.79,0.974-1.579,1.482-2.364 c0.262-0.404,0.533-0.806,0.802-1.208c0.461-0.694,0.93-1.386,1.411-2.075c0.302-0.432,0.609-0.861,0.919-1.291 c0.477-0.661,0.964-1.319,1.459-1.976c0.327-0.432,0.655-0.862,0.99-1.292c0.516-0.66,1.045-1.315,1.581-1.968 c0.335-0.409,0.666-0.819,1.009-1.226c0.598-0.705,1.215-1.402,1.836-2.099c0.304-0.341,0.598-0.685,0.908-1.022 c0.941-1.026,1.906-2.044,2.905-3.046c21.515-21.584,51.902-32.527,90.32-32.527c51.936,0,88.996,19.66,110.153,58.437 c0.609,1.116,1.189,2.234,1.755,3.352c0.11,0.218,0.222,0.436,0.331,0.653c0.538,1.079,1.058,2.157,1.557,3.232 c0.09,0.194,0.178,0.389,0.267,0.583c0.489,1.067,0.963,2.132,1.415,3.192c0.025,0.06,0.053,0.119,0.078,0.179 c0.472,1.109,0.918,2.214,1.352,3.313c0.075,0.191,0.15,0.383,0.225,0.574c0.423,1.086,0.828,2.166,1.214,3.236 c0.043,0.119,0.084,0.238,0.127,0.357c0.386,1.08,0.756,2.152,1.106,3.214c0.016,0.046,0.031,0.092,0.047,0.138 c0.361,1.098,0.703,2.183,1.029,3.257c0.037,0.123,0.074,0.246,0.111,0.369c0.325,1.081,0.637,2.15,0.928,3.203 c-1.49,0.849-2.985,1.677-4.483,2.491c-0.144,0.077-0.286,0.159-0.43,0.236c-1.396,0.756-2.796,1.49-4.199,2.216 c-0.25,0.129-0.5,0.264-0.751,0.393c-1.328,0.682-2.662,1.344-3.999,1.999c-0.326,0.16-0.651,0.325-0.978,0.483 c-1.284,0.623-2.572,1.227-3.861,1.824c-0.382,0.178-0.763,0.359-1.145,0.534c-1.243,0.568-2.491,1.119-3.74,1.666 c-0.435,0.189-0.867,0.384-1.303,0.571c-1.212,0.521-2.428,1.026-3.645,1.525c-0.474,0.195-0.946,0.394-1.421,0.585 c-1.189,0.479-2.382,0.943-3.576,1.402c-0.507,0.195-1.013,0.394-1.521,0.584c-1.168,0.44-2.34,0.865-3.512,1.286 c-0.539,0.193-1.076,0.389-1.615,0.577c-1.148,0.402-2.3,0.791-3.452,1.175c-0.569,0.189-1.138,0.38-1.708,0.564 c-1.129,0.366-2.262,0.721-3.396,1.069c-0.597,0.184-1.193,0.367-1.791,0.546c-1.115,0.333-2.231,0.654-3.351,0.97 c-0.62,0.175-1.24,0.35-1.862,0.52c-1.102,0.3-2.206,0.591-3.312,0.875c-0.644,0.165-1.288,0.329-1.933,0.489 c-1.089,0.27-2.18,0.53-3.271,0.784c-0.666,0.154-1.333,0.307-2,0.455c-1.077,0.24-2.154,0.472-3.234,0.696 c-0.688,0.143-1.378,0.282-2.067,0.419c-1.064,0.211-2.13,0.414-3.197,0.61c-0.711,0.13-1.422,0.256-2.133,0.379 c-1.051,0.183-2.104,0.359-3.157,0.526c-0.734,0.117-1.47,0.229-2.206,0.339c-1.037,0.154-2.076,0.305-3.116,0.445 c-0.755,0.103-1.511,0.197-2.266,0.292c-1.028,0.129-2.058,0.254-3.089,0.369c-0.773,0.086-1.549,0.165-2.324,0.243 c-1.017,0.104-2.033,0.204-3.053,0.293c-0.795,0.07-1.591,0.132-2.388,0.194c-1.006,0.078-2.012,0.154-3.02,0.22 c-0.815,0.053-1.633,0.096-2.45,0.14c-0.993,0.054-1.986,0.107-2.982,0.148c-0.836,0.035-1.674,0.06-2.511,0.085 c-0.054,0.002-0.107,0.003-0.16,0.005c0.076-1.434,0.138-2.864,0.171-4.281c0.313-13.824-1.284-32.879-10.673-45.141 c-4.849-6.336-11.526-9.77-19.309-9.928c-0.186-0.004-0.372-0.005-0.558-0.005c-21.213,0-47.054,24.399-59.967,38.189 c-0.739-0.305-1.493-0.58-2.277-0.793l-14.602-3.976c-2.066-0.562-4.145-0.744-6.173-0.619c-2.036-7.77-5.318-18.828-9.851-29.763 C144.228,190.041,144.495,189.489,144.774,188.937z M379.385,229.704l2.07,14.237c-7.26,6.248-33.026,25.046-86.363,31.609 c-2.454,0.303-4.951,0.566-7.47,0.81c-0.37,0.036-0.737,0.074-1.108,0.108c-2.476,0.229-4.979,0.431-7.51,0.604 c-0.327,0.022-0.655,0.043-0.983,0.064c-5.116,0.335-10.343,0.55-15.647,0.655c1.482-5.596,2.666-11.523,3.517-17.529 C300.176,259.37,339.39,251.524,379.385,229.704z M202.2,247.827c-0.333,0.051-0.665,0.074-0.991,0.074 c-3.293,0-6.177-2.413-6.67-5.768c-0.543-3.688,2.006-7.118,5.694-7.661l18.332-2.7c3.689-0.555,7.118,2.007,7.661,5.694 s-2.006,7.117-5.694,7.66L202.2,247.827z M218.58,275.519c-1.323,1.802-3.372,2.757-5.448,2.757c-1.387,0-2.784-0.425-3.987-1.309 l-16.506-12.112c-3.006-2.206-3.655-6.432-1.449-9.436c2.205-3.006,6.431-3.655,9.436-1.449l16.506,12.113 C220.137,268.288,220.785,272.514,218.58,275.519z M174.992,244.878l-4.968,18.263c-0.392,1.436-1.329,2.641-2.641,3.391 s-2.827,0.947-4.263,0.559c0,0,0,0-0.001,0l-14.603-3.975c-1.436-0.391-2.641-1.328-3.391-2.64 c-0.752-1.312-0.949-2.825-0.559-4.262l4.969-18.26c0.679-2.501,2.954-4.148,5.429-4.148c0.486,0,0.982,0.063,1.474,0.196 l14.603,3.975c1.436,0.391,2.64,1.328,3.392,2.64C175.184,241.928,175.382,243.441,174.992,244.878z M111.587,213.425 c2.265-2.962,6.503-3.525,9.462-1.262l11.475,8.775c2.961,2.265,3.527,6.501,1.262,9.462c-1.329,1.737-3.337,2.649-5.367,2.649 c-1.43,0-2.871-0.452-4.095-1.388l-11.475-8.775C109.888,220.622,109.322,216.386,111.587,213.425z M107.156,238.247l15.975-1.35 c3.692-0.297,6.979,2.442,7.294,6.157c0.313,3.716-2.442,6.98-6.158,7.295l-15.975,1.35c-0.192,0.016-0.385,0.023-0.576,0.023 c-3.47,0-6.42-2.66-6.718-6.182C100.684,241.826,103.44,238.561,107.156,238.247z M493.977,275.904 c-9.561,30.144-41.99,55.732-69.153,69.631c-47.884,24.496-107.71,38.016-168.457,38.068l-0.306,0.003 c-58.174-0.052-114.091-12.066-161.703-34.746c-46.905-22.345-74.69-58.098-77.896-81.866c-2.097-15.552,4.328-29.906,19.095-42.666 c4.451-3.847,11.638-9.287,22.021-15.059c-3.233,8.823-5.517,17.465-6.651,24.906c-2.462,16.15-0.055,27.7,6.962,33.399 c6.804,5.526,20.311,7.271,34.655,7.271c7.864,0,15.978-0.524,23.375-1.237l-44.565,33.935c-2.986,2.272-4.831,5.724-5.063,9.47 s1.177,7.398,3.859,10.021l17.985,17.576c2.417,2.362,5.66,3.673,9.017,3.673c0.311,0,0.623-0.01,0.935-0.034 c3.685-0.268,7.082-2.105,9.324-5.044l42.232-55.397l8.294,68.708c0.456,3.782,2.517,7.191,5.653,9.354 c2.24,1.545,4.88,2.353,7.554,2.353c1.068,0,2.142-0.13,3.195-0.391l23.523-5.823c3.754-0.931,6.913-3.444,8.662-6.895 c1.75-3.45,1.912-7.48,0.446-11.059l-18.945-46.248c13.58,9.634,29.87,18.661,43.248,18.661c1.308,0,2.593-0.087,3.84-0.268 c8.825-1.277,16.665-9.753,22.676-24.509c0.043-0.104,0.083-0.217,0.126-0.322c0.808-0.005,1.622-0.006,2.421-0.015 c0.53-0.007,1.048-0.021,1.573-0.028c0.998-0.017,1.999-0.031,2.984-0.055c0.577-0.014,1.143-0.035,1.715-0.052 c0.918-0.026,1.84-0.05,2.747-0.083c0.603-0.022,1.193-0.052,1.791-0.076c0.862-0.035,1.729-0.069,2.58-0.11 c0.604-0.029,1.196-0.066,1.795-0.099c0.829-0.045,1.664-0.087,2.483-0.137c0.599-0.037,1.185-0.08,1.777-0.12 c0.808-0.054,1.618-0.105,2.415-0.164c0.586-0.043,1.16-0.093,1.741-0.14c0.787-0.062,1.579-0.122,2.356-0.189 c0.576-0.051,1.141-0.106,1.712-0.159c0.77-0.07,1.543-0.14,2.303-0.215c0.557-0.056,1.102-0.116,1.653-0.175 c0.759-0.08,1.521-0.158,2.27-0.242c0.54-0.061,1.069-0.127,1.604-0.189c0.746-0.089,1.495-0.176,2.231-0.268 c0.524-0.066,1.038-0.137,1.558-0.205c0.732-0.097,1.47-0.191,2.192-0.292c0.497-0.069,0.984-0.143,1.477-0.214 c0.735-0.106,1.472-0.211,2.196-0.322c0.473-0.071,0.934-0.147,1.402-0.222c0.726-0.114,1.453-0.229,2.168-0.347 c0.466-0.078,0.922-0.159,1.383-0.238c0.707-0.121,1.416-0.241,2.113-0.367c0.442-0.079,0.875-0.162,1.313-0.243 c0.702-0.13,1.406-0.26,2.098-0.394c0.426-0.083,0.842-0.168,1.264-0.252c0.688-0.137,1.38-0.274,2.058-0.415 c0.416-0.087,0.824-0.176,1.236-0.264c0.672-0.144,1.344-0.286,2.005-0.433c0.399-0.088,0.79-0.18,1.186-0.27 c0.664-0.15,1.327-0.302,1.98-0.456c0.377-0.089,0.746-0.18,1.119-0.271c0.656-0.158,1.312-0.316,1.956-0.478 c0.365-0.092,0.724-0.186,1.085-0.278c0.643-0.164,1.285-0.329,1.916-0.496c0.343-0.091,0.679-0.184,1.018-0.275 c0.641-0.173,1.279-0.347,1.907-0.522c0.322-0.09,0.639-0.182,0.957-0.272c0.631-0.181,1.26-0.36,1.878-0.543 c0.313-0.092,0.62-0.186,0.93-0.279c0.612-0.184,1.224-0.367,1.825-0.554c0.303-0.095,0.602-0.189,0.902-0.284 c0.597-0.188,1.192-0.377,1.778-0.568c0.29-0.094,0.576-0.189,0.863-0.285c0.583-0.192,1.165-0.386,1.736-0.58 c0.279-0.096,0.554-0.191,0.83-0.287c0.571-0.198,1.142-0.396,1.701-0.596c0.261-0.093,0.517-0.187,0.774-0.28 c0.564-0.204,1.125-0.407,1.677-0.612c0.246-0.092,0.488-0.185,0.732-0.277c0.554-0.208,1.104-0.417,1.645-0.627 c0.232-0.09,0.46-0.181,0.69-0.271c0.541-0.213,1.08-0.426,1.61-0.641c0.218-0.088,0.433-0.177,0.647-0.265 c0.532-0.218,1.061-0.436,1.58-0.654c0.205-0.087,0.407-0.173,0.611-0.26c0.518-0.22,1.03-0.44,1.535-0.661 c0.199-0.087,0.394-0.174,0.59-0.261c0.502-0.222,1-0.443,1.489-0.666c0.187-0.085,0.37-0.169,0.556-0.255 c0.488-0.224,0.972-0.447,1.447-0.671c0.18-0.085,0.357-0.17,0.535-0.254c0.471-0.225,0.938-0.448,1.396-0.672 c0.171-0.084,0.34-0.167,0.509-0.251c0.459-0.226,0.913-0.451,1.358-0.677c0.158-0.079,0.313-0.159,0.469-0.238 c0.449-0.229,0.893-0.458,1.329-0.686c0.145-0.075,0.286-0.151,0.43-0.227c0.437-0.23,0.868-0.46,1.292-0.689 c0.138-0.074,0.273-0.148,0.41-0.223c0.418-0.228,0.83-0.455,1.236-0.682c0.135-0.075,0.268-0.15,0.401-0.226 c0.401-0.227,0.798-0.451,1.187-0.676c0.125-0.071,0.248-0.143,0.371-0.215c0.389-0.226,0.771-0.45,1.146-0.674 c0.117-0.069,0.233-0.139,0.35-0.209c0.374-0.224,0.742-0.447,1.103-0.668c0.108-0.066,0.215-0.133,0.321-0.198 c0.361-0.224,0.717-0.445,1.064-0.666c0.102-0.063,0.201-0.127,0.301-0.19c0.346-0.22,0.684-0.438,1.016-0.654 c0.096-0.062,0.189-0.123,0.283-0.185c0.332-0.218,0.657-0.434,0.977-0.647c0.085-0.057,0.17-0.114,0.254-0.171 c0.317-0.214,0.627-0.426,0.931-0.635c0.083-0.058,0.164-0.114,0.246-0.171c0.3-0.208,0.593-0.414,0.88-0.617 c0.076-0.055,0.152-0.108,0.228-0.162c0.286-0.204,0.564-0.406,0.838-0.605c0.069-0.05,0.139-0.101,0.207-0.151 c0.271-0.198,0.533-0.394,0.79-0.587c0.066-0.049,0.132-0.099,0.197-0.147c0.254-0.191,0.5-0.38,0.741-0.565 c0.062-0.048,0.122-0.095,0.183-0.142c0.24-0.186,0.473-0.367,0.699-0.547c0.055-0.043,0.109-0.087,0.163-0.13 c0.225-0.179,0.442-0.354,0.655-0.526c0.05-0.041,0.1-0.081,0.148-0.121c0.208-0.17,0.408-0.335,0.604-0.498 c0.05-0.041,0.1-0.083,0.148-0.124c0.194-0.163,0.382-0.321,0.563-0.477c0.038-0.033,0.076-0.065,0.113-0.098 c0.183-0.156,0.358-0.309,0.527-0.457c0.036-0.031,0.072-0.063,0.108-0.096c0.161-0.143,0.316-0.28,0.466-0.415 c0.038-0.034,0.076-0.067,0.112-0.101c0.144-0.13,0.279-0.254,0.411-0.375c0.036-0.034,0.073-0.067,0.108-0.101 c0.126-0.116,0.244-0.228,0.358-0.335c0.036-0.034,0.072-0.068,0.107-0.102c0.106-0.101,0.206-0.197,0.303-0.29 c0.035-0.034,0.071-0.068,0.105-0.102c0.093-0.091,0.18-0.176,0.262-0.259c0.029-0.027,0.059-0.057,0.086-0.084 c0.08-0.08,0.153-0.153,0.224-0.226c0.026-0.026,0.052-0.053,0.077-0.077c0.062-0.063,0.117-0.121,0.172-0.177 c0.025-0.027,0.052-0.055,0.076-0.079c0.045-0.047,0.084-0.088,0.122-0.129c0.024-0.027,0.05-0.054,0.072-0.078 c0.028-0.029,0.051-0.054,0.074-0.079c0.026-0.029,0.052-0.056,0.072-0.078c0.001-0.002,0.004-0.005,0.006-0.007 c0.009-0.01,0.029-0.031,0.036-0.039c0.003-0.003,0.005-0.006,0.007-0.009c0.006-0.007,0.017-0.019,0.022-0.024 c0.009-0.011,0.016-0.023,0.024-0.033c0.244-0.276,0.458-0.573,0.651-0.882c0.032-0.051,0.066-0.1,0.098-0.151l0,0l0,0 c0.184-0.311,0.338-0.635,0.47-0.968c0-0.001,0-0.001,0-0.001c0-0.001,0-0.001,0-0.001c0.027-0.069,0.051-0.138,0.075-0.206 c0.122-0.344,0.223-0.692,0.288-1.051c0.007-0.039,0.009-0.077,0.016-0.116c0,0,0,0,0-0.001l0,0 c0.057-0.346,0.084-0.695,0.086-1.048c0-0.039,0.01-0.076,0.009-0.115c-0.015-1.279-0.525-30.334-15.698-61.028 c32.78,6.455,71.967,18.908,98.824,42.926c7.734,6.919,13.174,15.135,15.729,23.762 C496.584,259.937,496.494,267.966,493.977,275.904z"></path>
    </g>
</svg>