<!DOCTYPE svg PUBLIC "-//W3C//DTD SVG 1.1//EN" "http://www.w3.org/Graphics/SVG/1.1/DTD/svg11.dtd">
<!-- Uploaded to: SVG Repo, www.svgrepo.com, Transformed by: SVG Repo Mixer Tools -->
<svg fill="#000000" version="1.1" id="Layer_1" xmlns="http://www.w3.org/2000/svg" xmlns:xlink="http://www.w3.org/1999/xlink" viewBox="0 0 512 512" xml:space="preserve" width="64px" height="64px">
<g id="SVGRepo_bgCarrier" stroke-width="0"/>
<g id="SVGRepo_tracerCarrier" stroke-linecap="round" stroke-linejoin="round"/>
<g id="SVGRepo_iconCarrier"> <g> <g> <path d="M408.116,260.8v85.083h102.673C503.264,295.206,461.218,265.835,408.116,260.8z"/> </g> </g> <g> <g> <path d="M343.543,254.968l-8.872,44.153l-32.737-6.578l9.612-47.834c-6.59-2.818-12.817-5.959-18.696-9.372l-22.462,38.158 l-28.777-16.939l24.024-40.813c-6.175-5.425-11.822-11.147-16.984-17.045L217.39,229.96l-23.611-23.611l34.849-34.849 c-4.628-7.476-8.636-14.946-12.1-22.194l-39.401,18.966l-14.483-30.087l41.478-19.966c-6.541-20.065-8.411-34.036-8.411-34.036 H28.434c0,137.141-25.475,166.759-28.195,261.7h374.486v0v-86.445C363.677,258.67,353.293,257.145,343.543,254.968z M100.174,283.057c-24.165,0-43.755-19.59-43.755-43.755c0-24.165,19.59-43.755,43.755-43.755s43.755,19.59,43.755,43.755 C143.929,263.468,124.339,283.057,100.174,283.057z"/> </g> </g> <g> <g> <rect y="379.279" width="512" height="48.538"/> </g> </g> </g>
</svg>