<!DOCTYPE svg PUBLIC "-//W3C//DTD SVG 1.1//EN" "http://www.w3.org/Graphics/SVG/1.1/DTD/svg11.dtd">

<!-- Uploaded to: SVG Repo, www.svgrepo.com, Transformed by: SVG Repo Mixer Tools -->
<svg fill="#fff" height="64px" width="64px" version="1.1" id="Layer_1" xmlns="http://www.w3.org/2000/svg" xmlns:xlink="http://www.w3.org/1999/xlink" viewBox="0 0 512 512" xml:space="preserve">

<g id="SVGRepo_bgCarrier" stroke-width="0"/>

<g id="SVGRepo_tracerCarrier" stroke-linecap="round" stroke-linejoin="round"/>

<g id="SVGRepo_iconCarrier"> <g> <g> <path d="M510.894,338.934c-3.706-27.435-16.729-50.604-38.224-67.664c-22.924-18.192-54.914-28.211-90.081-28.211 c-60.201,0-106.319-24.691-137.075-73.384c-23.743-37.593-29.275-76.148-29.323-76.499l-1.938-14.481H26.579v16.696 c0,71.009-7.334,109.787-14.427,147.289c-5.504,29.102-10.738,56.789-11.907,96.255H0v94.371h512v-94.371H510.894z M399.284,277.391c20.803,2.393,39.101,9.301,52.628,20.036c13.493,10.707,21.904,24.629,25.154,41.508h-77.782V277.391z M44.961,248.885c6.489-34.308,13.776-72.846,14.869-136.799h126.092c1.369,5.821,3.328,13.121,6.062,21.383l-23.723,11.42 l14.483,30.087l21.788-10.487c3.466,7.165,7.458,14.536,12.061,21.918c0.367,0.589,0.74,1.18,1.117,1.772l-20.641,20.641 l23.611,23.611l17.375-17.375c5.275,5.878,11.104,11.654,17.535,17.172l-13.975,23.742l28.777,16.939l12.554-21.327 c6.433,3.692,13.297,7.085,20.608,10.102l-5.68,28.263l32.737,6.578l5.002-24.894c9.49,2.051,19.573,3.505,30.283,4.248v63.055 H33.655C34.832,302.452,39.77,276.331,44.961,248.885z M478.609,399.913H33.391v-27.588h445.217V399.913z"/> </g> </g> <g> <g> <path d="M119.55,196.806c-31.76,0-57.598,25.838-57.598,57.598s25.838,57.598,57.598,57.598s57.598-25.838,57.598-57.598 C177.148,222.644,151.309,196.806,119.55,196.806z M119.55,278.609c-13.348,0-24.206-10.859-24.206-24.206 c0-13.348,10.859-24.206,24.206-24.206c13.348,0,24.206,10.859,24.206,24.206C143.756,267.75,132.897,278.609,119.55,278.609z"/> </g> </g> </g>

</svg>